<svg width="56" height="56" viewBox="0 0 56 56" fill="none" xmlns="http://www.w3.org/2000/svg">
<path d="M42.1093 5.7971C42.3025 5.9692 42.4911 6.14651 42.6754 6.32796C42.754 6.4049 42.754 6.4049 42.8342 6.4834C43.0056 6.65165 43.1762 6.82073 43.3466 6.98997C43.4056 7.04827 43.4645 7.10656 43.5252 7.16662C43.8371 7.47533 44.1485 7.78465 44.4593 8.09451C44.7777 8.41175 45.0982 8.72691 45.4191 9.04161C45.6679 9.28636 45.9153 9.5326 46.1623 9.77924C46.2796 9.89594 46.3975 10.0121 46.516 10.1277C47.5641 11.1519 48.3458 12.2216 48.3779 13.7336C48.3585 15.6019 47.2387 16.6703 45.9809 17.9221C45.8642 18.039 45.7475 18.156 45.6309 18.2731C45.3124 18.5925 44.9933 18.9112 44.6741 19.2297C44.3291 19.5742 43.9847 19.9194 43.6402 20.2644C42.9663 20.9393 42.2919 21.6136 41.6171 22.2876C41.0689 22.8354 40.5209 23.3834 39.973 23.9315C39.8949 24.0096 39.8169 24.0877 39.7365 24.1681C39.5779 24.3268 39.4193 24.4854 39.2607 24.6441C37.7752 26.1302 36.289 27.6157 34.8025 29.101C33.527 30.3756 32.252 31.6507 30.9774 32.9263C29.4967 34.4082 28.0156 35.8898 26.5339 37.3707C26.376 37.5286 26.2181 37.6864 26.0602 37.8443C25.9436 37.9608 25.9436 37.9608 25.8247 38.0796C25.277 38.6271 24.7296 39.1749 24.1823 39.7227C23.5156 40.39 22.8486 41.0568 22.1811 41.7232C21.8405 42.0632 21.5001 42.4034 21.1602 42.744C20.8491 43.0558 20.5375 43.367 20.2255 43.6778C20.1127 43.7904 20 43.9032 19.8875 44.0162C19.7348 44.1697 19.5812 44.3224 19.4277 44.475C19.3426 44.5601 19.2575 44.6451 19.1698 44.7328C18.6883 45.161 18.2661 45.3301 17.6363 45.4464C17.5258 45.4672 17.5258 45.4672 17.4131 45.4884C17.1665 45.5345 16.9197 45.579 16.6728 45.6233C16.4974 45.6554 16.322 45.6876 16.1466 45.7198C15.6522 45.8102 15.1576 45.8987 14.6629 45.987C14.3073 46.0508 13.9519 46.1155 13.5965 46.1803C12.956 46.297 12.3153 46.412 11.6743 46.5259C11.4212 46.5711 11.1681 46.6167 10.915 46.6627C10.5564 46.7277 10.1976 46.791 9.83859 46.8537C9.7321 46.8734 9.6256 46.8931 9.51588 46.9133C8.57579 47.0743 7.77454 47.0883 6.97006 46.5354C6.59336 46.2158 6.38851 45.8534 6.23435 45.3909C6.14 44.2201 6.35039 43.0933 6.55393 41.9468C6.58727 41.7548 6.62056 41.5627 6.65377 41.3707C6.72324 40.9708 6.79357 40.571 6.86453 40.1714C6.95505 39.6611 7.04321 39.1505 7.13071 38.6397C7.19879 38.2441 7.26817 37.8486 7.33793 37.4532C7.37096 37.2651 7.40358 37.0768 7.43576 36.8885C7.48096 36.6251 7.52794 36.362 7.57536 36.099C7.59448 35.9843 7.59448 35.9843 7.61399 35.8673C7.8348 34.6758 8.50331 33.9803 9.3404 33.1504C9.45874 33.0315 9.57699 32.9124 9.69515 32.7933C10.019 32.4674 10.3443 32.1428 10.6698 31.8185C11.021 31.4681 11.3709 31.1163 11.7211 30.7648C12.4068 30.0767 13.0937 29.3898 13.7811 28.7034C14.3398 28.1453 14.8981 27.5868 15.4562 27.0281C15.5356 26.9485 15.6151 26.869 15.697 26.787C15.8584 26.6254 16.0198 26.4637 16.1813 26.3021C17.6948 24.7867 19.2097 23.2728 20.7251 21.7593C22.1109 20.3751 23.495 18.9893 24.8784 17.6028C26.2994 16.1785 27.7215 14.7553 29.1447 13.3331C29.3057 13.1722 29.4668 13.0113 29.6278 12.8503C29.707 12.7712 29.7863 12.692 29.8679 12.6104C30.4255 12.053 30.9825 11.495 31.5392 10.9367C32.218 10.256 32.8977 9.57626 33.5787 8.89775C33.926 8.55169 34.2728 8.20521 34.6185 7.85752C34.9352 7.53892 35.2532 7.22162 35.5723 6.90529C35.6871 6.79096 35.8015 6.67618 35.9154 6.56088C37.752 4.70324 39.9039 4.25793 42.1093 5.7971ZM37.3349 9.00828C37.2364 9.1072 37.138 9.20612 37.0365 9.30803C36.7768 9.56925 36.5179 9.83115 36.2592 10.0934C35.9944 10.3616 35.7286 10.6289 35.4629 10.8963C34.9431 11.4197 34.4243 11.944 33.9062 12.469C34.5341 13.2371 35.2403 13.9262 35.9425 14.6253C36.0764 14.759 36.2104 14.8928 36.3443 15.0266C36.6947 15.3766 37.0454 15.7262 37.3961 16.0758C37.7549 16.4334 38.1133 16.7913 38.4718 17.1492C39.1736 17.8499 39.8757 18.5502 40.5781 19.2502C41.1805 18.7475 41.741 18.2143 42.2961 17.66C42.3843 17.5722 42.4725 17.4843 42.5634 17.3938C42.7486 17.2092 42.9336 17.0244 43.1185 16.8395C43.4018 16.5564 43.686 16.2742 43.9702 15.992C44.1505 15.8121 44.3307 15.6321 44.5109 15.452C44.5959 15.3678 44.6809 15.2836 44.7684 15.1968C44.847 15.118 44.9255 15.0391 45.0064 14.9578C45.0755 14.8889 45.1446 14.82 45.2158 14.7489C45.5068 14.4129 45.6542 14.1172 45.6413 13.6689C45.5287 12.8845 44.875 12.3885 44.3323 11.8644C44.2132 11.7464 44.0942 11.6281 43.9754 11.5097C43.7269 11.2629 43.477 11.0175 43.226 10.7732C42.9045 10.4604 42.5854 10.1453 42.2672 9.82914C41.9628 9.52697 41.6574 9.2259 41.3518 8.92497C41.2938 8.8677 41.2358 8.81043 41.176 8.75143C41.0114 8.58936 40.8461 8.42808 40.6805 8.26704C40.5866 8.17528 40.4927 8.08353 40.3959 7.989C40.0903 7.72185 39.8505 7.57101 39.4502 7.50609C38.5504 7.63163 37.9377 8.39461 37.3349 9.00828ZM31.5907 14.7649C31.5162 14.8379 31.4416 14.9109 31.3648 14.9861C31.2821 15.0676 31.1994 15.1492 31.1141 15.2332C31.0269 15.3188 30.9396 15.4044 30.8498 15.4926C30.5548 15.7822 30.2603 16.0722 29.9658 16.3622C29.8091 16.5164 29.6523 16.6705 29.4955 16.8246C27.5153 18.7712 25.5425 20.7254 23.5715 22.6814C23.3144 22.9365 23.0573 23.1915 22.8002 23.4466C22.7363 23.51 22.6724 23.5734 22.6065 23.6387C21.5746 24.6621 20.5387 25.6814 19.5013 26.6992C18.4349 27.7456 17.3727 28.7961 16.3144 29.8506C15.6624 30.4999 15.0074 31.1458 14.3482 31.7878C13.895 32.2296 13.4461 32.6755 13.0001 33.1246C12.7435 33.3829 12.4851 33.6383 12.2224 33.8905C10.8163 35.2435 10.1973 36.3282 9.99144 38.2809C9.9255 38.8461 9.81343 39.4029 9.70828 39.9618C9.66984 40.1802 9.6317 40.3986 9.594 40.617C9.51743 41.0606 9.44021 41.5041 9.36243 41.9475C9.325 42.1629 9.28761 42.3783 9.25028 42.5937C9.23285 42.6929 9.21543 42.7921 9.19747 42.8943C9.18172 42.9862 9.16597 43.0781 9.14974 43.1727C9.13585 43.2529 9.12195 43.333 9.10764 43.4156C9.06862 43.6753 9.06861 43.6753 9.0781 44.0784C10.4727 43.9761 11.8446 43.7259 13.2212 43.4888C13.5356 43.4348 13.8503 43.3825 14.1653 43.3316C14.5494 43.2696 14.9329 43.2047 15.3162 43.1376C15.5306 43.1009 15.7454 43.067 15.9603 43.0332C16.0921 43.0095 16.2239 42.9859 16.3597 42.9615C16.4746 42.9421 16.5895 42.9228 16.7079 42.9029C17.5493 42.5777 18.2039 41.7495 18.8316 41.1192C18.9172 41.0337 19.0028 40.9482 19.0911 40.8601C19.3758 40.5755 19.6601 40.2906 19.9445 40.0057C20.1493 39.8008 20.3542 39.5959 20.5591 39.3911C20.9991 38.9511 21.4389 38.511 21.8786 38.0707C22.5143 37.4341 23.1503 36.7978 23.7864 36.1616C24.8185 35.1292 25.8504 34.0966 26.8822 33.0638C27.884 32.0609 28.886 31.0582 29.8881 30.0556C29.9499 29.9938 30.0118 29.9319 30.0755 29.8681C30.3858 29.5577 30.696 29.2473 31.0063 28.9369C33.5775 26.3646 36.1482 23.7919 38.7187 21.219C38.6158 21.0979 38.5128 20.977 38.4098 20.8562C38.3524 20.7888 38.2951 20.7215 38.236 20.6521C37.9816 20.3607 37.7115 20.0871 37.4375 19.8142C37.3496 19.726 37.3496 19.726 37.2599 19.6361C37.069 19.4447 36.8777 19.2537 36.6863 19.0627C36.5526 18.9289 36.419 18.7951 36.2853 18.6613C36.0066 18.3825 35.7278 18.1039 35.4488 17.8254C35.0904 17.4677 34.7326 17.1095 34.3748 16.7511C34.0997 16.4755 33.8242 16.2002 33.5487 15.9249C33.4165 15.7928 33.2844 15.6607 33.1524 15.5284C32.9689 15.3446 32.785 15.1611 32.6011 14.9778C32.5188 14.8952 32.5188 14.8952 32.4349 14.811C32.0124 14.3777 32.0124 14.3777 31.5907 14.7649Z" fill="#EE4723"/>
<path d="M7.09657 49.422C7.3035 49.4212 7.3035 49.4212 7.5146 49.4203C7.66912 49.4203 7.82364 49.4202 7.97816 49.4202C8.14119 49.4197 8.30423 49.4193 8.46727 49.4187C8.91694 49.4174 9.36661 49.4168 9.81628 49.4163C10.3006 49.4157 10.7849 49.4144 11.2693 49.4132C12.4398 49.4105 13.6102 49.4089 14.7807 49.4075C15.1112 49.4071 15.4416 49.4067 15.772 49.4062C17.8228 49.4035 19.8735 49.4011 21.9243 49.3997C22.3995 49.3994 22.8747 49.3991 23.3499 49.3987C23.468 49.3986 23.5861 49.3986 23.7078 49.3985C25.6219 49.3971 27.5361 49.3935 29.4502 49.3889C31.4141 49.3843 33.3781 49.3817 35.342 49.3811C36.4452 49.3807 37.5484 49.3795 38.6516 49.3759C39.591 49.3728 40.5303 49.3716 41.4697 49.3728C41.9492 49.3734 42.4286 49.3731 42.908 49.3704C43.3469 49.3679 43.7856 49.368 44.2244 49.37C44.3833 49.3704 44.5421 49.3697 44.701 49.3681C46.0363 49.3552 46.0363 49.3552 46.467 49.7009C46.8394 50.1471 46.8551 50.4485 46.8518 51.0174C46.7885 51.4669 46.5939 51.6479 46.2656 51.9526C45.9687 52.1011 45.7361 52.0763 45.4035 52.077C45.1965 52.0778 45.1965 52.0778 44.9854 52.0787C44.8309 52.0788 44.6764 52.0788 44.5219 52.0789C44.3588 52.0793 44.1958 52.0798 44.0328 52.0803C43.5831 52.0816 43.1334 52.0822 42.6837 52.0827C42.1994 52.0834 41.7151 52.0846 41.2307 52.0858C40.0603 52.0885 38.8898 52.0901 37.7193 52.0915C37.3889 52.0919 37.0584 52.0924 36.728 52.0928C34.6772 52.0956 32.6265 52.098 30.5758 52.0993C30.1006 52.0997 29.6254 52.1 29.1502 52.1003C29.032 52.1004 28.9139 52.1005 28.7922 52.1006C26.8781 52.1019 24.964 52.1056 23.0498 52.1101C21.0859 52.1148 19.122 52.1173 17.158 52.1179C16.0548 52.1183 14.9516 52.1196 13.8484 52.1232C12.9091 52.1262 11.9697 52.1274 11.0303 52.1262C10.5509 52.1257 10.0715 52.126 9.592 52.1287C9.15317 52.1311 8.71441 52.1311 8.27558 52.129C8.11674 52.1287 7.95789 52.1293 7.79906 52.1309C6.46374 52.1438 6.46374 52.1438 6.03306 51.7981C5.66062 51.3519 5.64491 51.0506 5.6482 50.4816C5.71153 50.0322 5.90617 49.8512 6.23439 49.5464C6.53135 49.3979 6.76391 49.4227 7.09657 49.422Z" fill="#EE4723"/>
<path d="M39.0468 37.188C39.3887 37.3709 39.6367 37.602 39.8125 37.9536C39.8218 38.1599 39.8242 38.3666 39.8232 38.5731C39.8228 38.6958 39.8225 38.8184 39.8221 38.9448C39.8207 39.1377 39.8207 39.1377 39.8193 39.3345C39.8188 39.4639 39.8183 39.5933 39.8178 39.7267C39.8165 40.0471 39.8147 40.3675 39.8125 40.688C39.8919 40.6851 39.9713 40.6822 40.0531 40.6793C40.4149 40.6679 40.7767 40.6608 41.1386 40.6538C41.2636 40.6492 41.3885 40.6446 41.5172 40.6399C42.5567 40.6248 42.5567 40.6248 42.9562 40.9499C43.3416 41.3946 43.3551 41.6934 43.3518 42.2684C43.2885 42.7178 43.0938 42.8988 42.7656 43.2036C42.4745 43.3492 42.2529 43.3253 41.9273 43.3236C41.8047 43.3233 41.682 43.3229 41.5556 43.3226C41.4271 43.3217 41.2985 43.3207 41.166 43.3198C41.0366 43.3193 40.9071 43.3188 40.7738 43.3183C40.4533 43.317 40.1329 43.3152 39.8125 43.313C39.8153 43.3924 39.8182 43.4718 39.8212 43.5536C39.8326 43.9154 39.8396 44.2772 39.8467 44.6391C39.8512 44.7641 39.8558 44.889 39.8605 45.0177C39.8756 46.0572 39.8756 46.0572 39.5506 46.4566C39.1058 46.8421 38.807 46.8556 38.2321 46.8523C37.7826 46.7889 37.6016 46.5943 37.2968 46.2661C37.1513 45.975 37.1751 45.7534 37.1768 45.4278C37.1771 45.3052 37.1775 45.1825 37.1779 45.0561C37.1788 44.9275 37.1797 44.799 37.1806 44.6665C37.1811 44.5371 37.1816 44.4076 37.1821 44.2743C37.1834 43.9538 37.1852 43.6334 37.1875 43.313C37.0684 43.3173 37.0684 43.3173 36.9469 43.3216C36.585 43.3331 36.2232 43.3401 35.8613 43.3471C35.6739 43.354 35.6739 43.354 35.4828 43.361C34.4432 43.3761 34.4432 43.3761 34.0438 43.0511C33.6584 42.6063 33.6448 42.3075 33.6482 41.7326C33.7115 41.2831 33.9061 41.1021 34.2343 40.7973C34.5255 40.6518 34.747 40.6756 35.0726 40.6773C35.1953 40.6776 35.3179 40.678 35.4443 40.6784C35.5729 40.6793 35.7015 40.6802 35.834 40.6811C35.9634 40.6816 36.0928 40.6821 36.2262 40.6826C36.5466 40.6839 36.867 40.6857 37.1875 40.688C37.1832 40.5689 37.1832 40.5689 37.1788 40.4474C37.1674 40.0855 37.1603 39.7237 37.1533 39.3618C37.1487 39.2369 37.1441 39.112 37.1394 38.9833C37.1243 37.9437 37.1243 37.9437 37.4494 37.5443C37.9468 37.1132 38.4046 37.0975 39.0468 37.188Z" fill="#EE4723"/>
<path d="M47.7968 26.688C48.1387 26.8709 48.3867 27.102 48.5625 27.4536C48.5718 27.6599 48.5742 27.8666 48.5732 28.0731C48.5728 28.1958 48.5725 28.3184 48.5721 28.4448C48.5707 28.6377 48.5707 28.6377 48.5693 28.8345C48.5688 28.9639 48.5683 29.0933 48.5678 29.2267C48.5665 29.5471 48.5647 29.8675 48.5625 30.188C48.6419 30.1851 48.7213 30.1822 48.8031 30.1793C49.1649 30.1679 49.5267 30.1608 49.8886 30.1538C50.0136 30.1492 50.1385 30.1446 50.2672 30.1399C51.3067 30.1248 51.3067 30.1248 51.7062 30.4499C52.0916 30.8946 52.1051 31.1934 52.1018 31.7684C52.0385 32.2178 51.8438 32.3988 51.5156 32.7036C51.2245 32.8492 51.0029 32.8253 50.6773 32.8236C50.5547 32.8233 50.432 32.8229 50.3056 32.8226C50.1771 32.8217 50.0485 32.8207 49.916 32.8198C49.7866 32.8193 49.6571 32.8188 49.5238 32.8183C49.2033 32.817 48.8829 32.8152 48.5625 32.813C48.5653 32.8924 48.5682 32.9718 48.5712 33.0536C48.5826 33.4154 48.5896 33.7772 48.5967 34.1391C48.6012 34.2641 48.6058 34.389 48.6105 34.5177C48.6256 35.5572 48.6256 35.5572 48.3006 35.9566C47.8558 36.3421 47.557 36.3556 46.9821 36.3523C46.5326 36.2889 46.3516 36.0943 46.0468 35.7661C45.9013 35.475 45.9251 35.2534 45.9268 34.9278C45.9271 34.8052 45.9275 34.6825 45.9279 34.5561C45.9288 34.4275 45.9297 34.299 45.9306 34.1665C45.9311 34.0371 45.9316 33.9076 45.9321 33.7743C45.9334 33.4538 45.9352 33.1334 45.9375 32.813C45.8184 32.8173 45.8184 32.8173 45.6969 32.8216C45.335 32.8331 44.9732 32.8401 44.6113 32.8471C44.4239 32.854 44.4239 32.854 44.2328 32.861C43.1932 32.8761 43.1932 32.8761 42.7938 32.5511C42.4084 32.1063 42.3948 31.8075 42.3982 31.2326C42.4615 30.7831 42.6561 30.6021 42.9843 30.2973C43.2755 30.1518 43.497 30.1756 43.8226 30.1773C43.9453 30.1776 44.0679 30.178 44.1943 30.1784C44.3229 30.1793 44.4515 30.1802 44.584 30.1811C44.7134 30.1816 44.8428 30.1821 44.9762 30.1826C45.2966 30.1839 45.617 30.1857 45.9375 30.188C45.9332 30.0689 45.9332 30.0689 45.9288 29.9474C45.9174 29.5855 45.9103 29.2237 45.9033 28.8618C45.8987 28.7369 45.8941 28.612 45.8894 28.4833C45.8743 27.4437 45.8743 27.4437 46.1994 27.0443C46.6968 26.6132 47.1546 26.5975 47.7968 26.688Z" fill="#EE4723"/>
<path d="M21.5468 7.43797C21.8887 7.62085 22.1367 7.85202 22.3125 8.20359C22.3218 8.40992 22.3242 8.61657 22.3232 8.8231C22.3228 8.94576 22.3225 9.06843 22.3221 9.1948C22.3207 9.38768 22.3207 9.38768 22.3193 9.58445C22.3188 9.71388 22.3183 9.84331 22.3178 9.97667C22.3165 10.2971 22.3147 10.6175 22.3125 10.938C22.3919 10.9351 22.4713 10.9322 22.5531 10.9293C22.9149 10.9179 23.2767 10.9108 23.6386 10.9038C23.7636 10.8992 23.8885 10.8946 24.0172 10.8899C25.0567 10.8748 25.0567 10.8748 25.4562 11.1999C25.8416 11.6446 25.8551 11.9434 25.8518 12.5184C25.7885 12.9678 25.5938 13.1488 25.2656 13.4536C24.9745 13.5992 24.7529 13.5753 24.4273 13.5736C24.3047 13.5733 24.182 13.5729 24.0556 13.5726C23.9271 13.5717 23.7985 13.5707 23.666 13.5698C23.5366 13.5693 23.4071 13.5688 23.2738 13.5683C22.9533 13.567 22.6329 13.5652 22.3125 13.563C22.3153 13.6424 22.3182 13.7218 22.3212 13.8036C22.3326 14.1654 22.3396 14.5272 22.3467 14.8891C22.3512 15.0141 22.3558 15.139 22.3605 15.2677C22.3756 16.3072 22.3756 16.3072 22.0506 16.7066C21.6058 17.0921 21.307 17.1056 20.7321 17.1023C20.2826 17.0389 20.1016 16.8443 19.7968 16.5161C19.6513 16.225 19.6751 16.0034 19.6768 15.6778C19.6771 15.5552 19.6775 15.4325 19.6779 15.3061C19.6788 15.1775 19.6797 15.049 19.6806 14.9165C19.6811 14.7871 19.6816 14.6576 19.6821 14.5243C19.6834 14.2038 19.6852 13.8834 19.6875 13.563C19.5684 13.5673 19.5684 13.5673 19.4469 13.5716C19.085 13.5831 18.7232 13.5901 18.3613 13.5971C18.1739 13.604 18.1739 13.604 17.9828 13.611C16.9432 13.6261 16.9432 13.6261 16.5438 13.3011C16.1584 12.8563 16.1448 12.5575 16.1482 11.9826C16.2115 11.5331 16.4061 11.3521 16.7343 11.0473C17.0255 10.9018 17.247 10.9256 17.5726 10.9273C17.6953 10.9276 17.8179 10.928 17.9443 10.9284C18.0729 10.9293 18.2015 10.9302 18.334 10.9311C18.4634 10.9316 18.5928 10.9321 18.7262 10.9326C19.0466 10.9339 19.367 10.9357 19.6875 10.938C19.6832 10.8189 19.6832 10.8189 19.6788 10.6974C19.6674 10.3355 19.6603 9.97374 19.6533 9.6118C19.6487 9.48688 19.6441 9.36196 19.6394 9.23326C19.6243 8.19374 19.6243 8.19374 19.9494 7.79429C20.4468 7.36322 20.9046 7.34749 21.5468 7.43797Z" fill="#EE4723"/>
<path d="M9.29685 3.93797C9.63873 4.12085 9.88669 4.35202 10.0625 4.70359C10.0718 4.90992 10.0742 5.11657 10.0732 5.3231C10.0728 5.44576 10.0725 5.56843 10.0721 5.6948C10.0707 5.88768 10.0707 5.88768 10.0693 6.08445C10.0688 6.21388 10.0683 6.34331 10.0678 6.47667C10.0665 6.79711 10.0647 7.11753 10.0625 7.43797C10.1419 7.4351 10.2213 7.43224 10.3031 7.42929C10.6649 7.41788 11.0267 7.4108 11.3886 7.40379C11.5136 7.39921 11.6385 7.39462 11.7672 7.3899C12.8067 7.37479 12.8067 7.37479 13.2062 7.69987C13.5916 8.14463 13.6051 8.4434 13.6018 9.01835C13.5385 9.46782 13.3438 9.64882 13.0156 9.95359C12.7245 10.0992 12.5029 10.0753 12.1773 10.0736C12.0547 10.0733 11.932 10.0729 11.8056 10.0726C11.6771 10.0717 11.5485 10.0707 11.416 10.0698C11.2866 10.0693 11.1571 10.0688 11.0238 10.0683C10.7033 10.067 10.3829 10.0652 10.0625 10.063C10.0653 10.1424 10.0682 10.2218 10.0712 10.3036C10.0826 10.6654 10.0896 11.0272 10.0967 11.3891C10.1012 11.5141 10.1058 11.639 10.1105 11.7677C10.1256 12.8072 10.1256 12.8072 9.80057 13.2066C9.35581 13.5921 9.05705 13.6056 8.48209 13.6023C8.03262 13.5389 7.85162 13.3443 7.54685 13.0161C7.40128 12.725 7.42515 12.5034 7.42679 12.1778C7.42715 12.0552 7.4275 11.9325 7.42786 11.8061C7.42878 11.6775 7.42969 11.549 7.43064 11.4165C7.43113 11.2871 7.43162 11.1576 7.43213 11.0243C7.43343 10.7038 7.43523 10.3834 7.43747 10.063C7.31838 10.0673 7.31838 10.0673 7.19688 10.0716C6.83505 10.0831 6.47325 10.0901 6.1113 10.0971C5.92392 10.104 5.92392 10.104 5.73276 10.111C4.69325 10.1261 4.69325 10.1261 4.2938 9.80107C3.90838 9.35631 3.89484 9.05754 3.89817 8.48259C3.96149 8.03311 4.15613 7.85212 4.48435 7.54734C4.77548 7.40178 4.99703 7.42564 5.32261 7.42729C5.44527 7.42764 5.56793 7.42799 5.69431 7.42836C5.82289 7.42927 5.95148 7.43019 6.08396 7.43113C6.21339 7.43163 6.34282 7.43212 6.47617 7.43263C6.79661 7.43392 7.11704 7.43572 7.43747 7.43797C7.43318 7.31888 7.43318 7.31888 7.4288 7.19738C7.41739 6.83554 7.4103 6.47374 7.40329 6.1118C7.39871 5.98688 7.39413 5.86196 7.38941 5.73326C7.3743 4.69374 7.3743 4.69374 7.69938 4.29429C8.19683 3.86322 8.65463 3.84749 9.29685 3.93797Z" fill="#EE4723"/>
</svg>
